<svg xmlns="http://www.w3.org/2000/svg" version="1.1" xmlns:xlink="http://www.w3.org/1999/xlink" xmlns:svgjs="http://svgjs.dev/svgjs" width="1500" height="337" viewBox="0 0 1500 337"><g transform="matrix(1,0,0,1,-0.9089782811666964,0.8857562210481262)"><svg viewBox="0 0 396 89" data-background-color="#000000" preserveAspectRatio="xMidYMid meet" height="337" width="1500" xmlns="http://www.w3.org/2000/svg" xmlns:xlink="http://www.w3.org/1999/xlink"><g id="tight-bounds" transform="matrix(1,0,0,1,0.23997026622799922,-0.23391205630488798)"><svg viewBox="0 0 395.52 89.46781241914235" height="89.46781241914235" width="395.52"><rect width="395.520059467544" height="89.46783580607726" fill="url(#7dacb42b-c37a-4204-b521-b77552dfa144)" mask="url(#777462fa-48a8-4a1a-b44b-27dbf4bfa643)" data-fill-palette-color="tertiary"></rect><g><svg viewBox="0 0 532.0818367826024 120.35851022678648" height="89.46781241914235" width="395.52"><g transform="matrix(1,0,0,1,136.56183678260243,0)"><svg viewBox="0 0 395.52 120.35851022678648" height="120.35851022678648" width="395.52"><g id="textblocktransform"><svg viewBox="0 0 395.52 120.35851022678648" height="120.35851022678648" width="395.52" id="textblock"><g><svg viewBox="0 0 395.52 120.35851022678648" height="120.35851022678648" width="395.52"><path d="M394.594 25.815C392.735 13.321 387.435 9.848 387.435 9.848 371.165-3.02 350.86-0.246 332.619 1.603 300.414 1.678 268.339 4.426 236.208 5.9 168.767 6.125 100.749 2.427 33.643 11.547 27.339 14.346-6.54 12.097 1.121 27.414 3.129 33.785 10.456 40.856 10.232 46.703 11.236 47.728 12.631 45.379 13.226 46.853 15.309 50.826 18.711 48.952 21.501 51.301 17.614 57.572 20.403 62.794 23.062 68.266 18.377 69.691 12.371 69.016 9.675 73.738 9.396 77.162 7.89 76.512 6.235 76.362 5.026 76.262 2.59 76.637 2.999 77.711 4.394 81.384-1.594 83.508 2.162 87.106-0.422 91.004 3.948 94.377 3.353 98.6 3.278 99.449 3.687 100.174 4.338 100.374 7.22 101.448 3.018 103.547 3.464 105.821 33.029 121.362 65.104 110.618 95.394 117.764 103.259 112.767 97.346 119.538 100.489 118.489 102.943 117.265 104.728 122.337 107.499 119.463 107.927 118.639 107.276 116.69 108.8 117.065 109.6 117.265 110.307 117.215 110.418 116.065 110.586 114.341 109.117 115.416 108.726 114.516 112.947 109.969 111.906 120.788 115.866 120.338 115.68 119.014 114.528 117.115 116.889 117.365 119.232 115.466 119.306 113.891 121.389 118.164 121.463 119.089 121.835 119.738 122.43 120.188 128.938 115.541 135.409 121.837 142.233 119.738 146.417 117.44 150.433 120.988 154.672 120.113 156.16 119.413 157.666 118.164 159.098 120.263 176.632 120.713 195.319 118.839 211.943 120.338 256.364 117.539 303.836 121.487 350.674 117.789 361.719 116.365 373.192 114.341 383.958 112.717 383.958 112.717 392.679 108.27 392.679 88.28S394.538 70.79 394.817 54.874C395.096 38.957 396.398 38.308 394.538 25.815Z" opacity="1" fill="url(#7dacb42b-c37a-4204-b521-b77552dfa144)" data-fill-palette-color="tertiary"></path><g transform="matrix(1,0,0,1,55.76832,26.230666666666675)"><svg width="283.98335999999995" viewBox="2.15 -36.75 155.78 37.25" height="67.89717689345314" data-palette-color="#000000"><path d="M2.15 0L2.15 0 2.15-33.15Q2.15-34.1 2.35-34.48 2.55-34.85 3.43-34.93 4.3-35 6.3-35L6.3-35 6.3-0.8Q6.3-0.4 6.1-0.25 5.9-0.1 5.08-0.05 4.25 0 2.15 0ZM10.7 0L10.7 0 10.7-23.8Q11.7-24.25 13.05-24.63 14.4-25 15.85-25.25 17.3-25.5 18.65-25.5L18.65-25.5Q21.25-25.5 22.8-24.83 24.35-24.15 25-22.7 25.65-21.25 25.65-18.8L25.65-18.8 25.65-0.8Q25.65-0.4 25.45-0.25 25.25-0.1 24.4-0.05 23.55 0 21.45 0L21.45 0 21.45-17.6Q21.45-19.95 20.9-20.95 20.35-21.95 18.5-21.95L18.5-21.95Q17.65-21.95 16.6-21.75 15.55-21.55 14.75-21.05L14.75-21.05 14.75-0.8Q14.75-0.4 14.57-0.25 14.4-0.1 13.55-0.05 12.7 0 10.7 0ZM35.45 0.5L35.45 0.5Q32.8 0.5 31.07-0.13 29.35-0.75 29.35-2.05L29.35-2.05Q29.35-2.5 29.5-3.13 29.65-3.75 30.05-4.4L30.05-4.4Q31.15-3.75 32.37-3.45 33.59-3.15 35.05-3.15L35.05-3.15Q36.95-3.15 38.02-3.93 39.09-4.7 39.09-6.25L39.09-6.25Q39.09-7.25 38.67-8.2 38.25-9.15 37.09-10.15L37.09-10.15 32.25-14.3Q30.55-15.7 29.97-17.03 29.4-18.35 29.4-19.6L29.4-19.6Q29.4-21.35 30.27-22.68 31.15-24 32.97-24.75 34.8-25.5 37.55-25.5L37.55-25.5Q40.15-25.5 41.47-25 42.8-24.5 43.32-23.88 43.84-23.25 43.84-22.7L43.84-22.7Q43.84-21.65 42.95-20.65L42.95-20.65Q41.84-21.35 40.65-21.65 39.45-21.95 38.05-21.95L38.05-21.95Q36.25-21.95 35.17-21.33 34.09-20.7 34.09-19.55L34.09-19.55Q34.09-18.9 34.47-18.2 34.84-17.5 36.09-16.45L36.09-16.45 40.75-12.7Q42.4-11.15 43.05-9.75 43.7-8.35 43.7-6.45L43.7-6.45Q43.7-3.15 41.5-1.33 39.3 0.5 35.45 0.5ZM54.19 0.5L54.19 0.5Q52.09 0.5 51.07-0.43 50.04-1.35 49.74-3.03 49.44-4.7 49.44-6.95L49.44-6.95 49.44-21.5 46.04-21.5Q46.04-23.1 46.07-23.83 46.09-24.55 46.29-24.78 46.49-25 46.89-25L46.89-25 49.44-25 49.44-32.6Q49.44-33.35 49.77-33.63 50.09-33.9 50.97-33.95 51.84-34 53.49-34L53.49-34 53.49-25 58.59-25Q58.59-23.45 58.57-22.7 58.54-21.95 58.37-21.73 58.19-21.5 57.79-21.5L57.79-21.5 53.49-21.5 53.49-6.95Q53.49-5.9 53.57-4.98 53.64-4.05 54.02-3.53 54.39-3 55.29-3L55.29-3Q56.14-3 56.79-3.18 57.44-3.35 58.19-3.75L58.19-3.75Q58.29-3.35 58.39-2.85 58.49-2.35 58.49-1.7L58.49-1.7Q58.49-0.8 57.82-0.33 57.14 0.15 56.17 0.33 55.19 0.5 54.19 0.5ZM67.94 0.5L67.94 0.5Q66.54 0.5 65.27 0.28 63.99 0.05 62.99-0.73 61.99-1.5 61.39-3 60.79-4.5 60.79-7.1L60.79-7.1Q60.79-9.7 61.34-11.33 61.89-12.95 62.84-13.83 63.79-14.7 64.99-15 66.19-15.3 67.44-15.3L67.44-15.3Q68.24-15.3 69.31-15.15 70.39-15 71.14-14.65L71.14-14.65Q71.14-14.65 71.14-15.35 71.14-16.05 71.14-16.98 71.14-17.9 71.14-18.6L71.14-18.6Q71.14-19.8 70.77-20.43 70.39-21.05 69.72-21.33 69.04-21.6 68.04-21.6L68.04-21.6Q66.09-21.6 64.29-21.25 62.49-20.9 61.39-20.45L61.39-20.45Q61.04-21.05 60.94-21.68 60.84-22.3 60.84-22.8L60.84-22.8Q60.84-23.15 60.97-23.55 61.09-23.95 61.39-24.15L61.39-24.15Q62.04-24.55 64.09-25.03 66.14-25.5 68.99-25.5L68.99-25.5Q72.24-25.5 73.72-24.15 75.19-22.8 75.19-19.4L75.19-19.4 75.19-16.75Q75.19-13.9 75.17-11.03 75.14-8.15 75.09-5.63 75.04-3.1 74.89-1.2L74.89-1.2Q73.89-0.6 72.14-0.05 70.39 0.5 67.94 0.5ZM68.34-2.9L68.34-2.9Q69.14-2.9 69.89-3.15 70.64-3.4 70.94-3.75L70.94-3.75Q71.04-4.55 71.06-5.95 71.09-7.35 71.12-8.9 71.14-10.45 71.14-11.8L71.14-11.8Q70.64-12.05 69.97-12.15 69.29-12.25 68.79-12.25L68.79-12.25Q67.99-12.25 67.31-12.08 66.64-11.9 66.14-11.38 65.64-10.85 65.34-9.85 65.04-8.85 65.04-7.2L65.04-7.2Q65.04-5.85 65.27-5 65.49-4.15 65.94-3.68 66.39-3.2 66.99-3.05 67.59-2.9 68.34-2.9ZM81.24 0L81.24 0 81.24-34.4Q81.24-34.4 81.34-34.48 81.44-34.55 82.04-34.55L82.04-34.55 84.44-34.55Q85.09-34.55 85.19-34.48 85.29-34.4 85.29-34.4L85.29-34.4 85.29-0.8Q85.29-0.4 85.11-0.25 84.94-0.1 84.09-0.05 83.24 0 81.24 0ZM91.44-31.2L74.44-31.2 74.44-34.2Q74.44-35 75.29-35L75.29-35 92.29-35 92.29-32Q92.29-31.55 92.09-31.38 91.89-31.2 91.44-31.2L91.44-31.2ZM93.64 0L93.64 0 93.64-23.25Q95.09-24.3 96.84-24.9 98.59-25.5 100.44-25.5L100.44-25.5Q102.39-25.5 103.16-24.98 103.94-24.45 103.94-23.4L103.94-23.4Q103.94-23 103.84-22.33 103.74-21.65 103.49-21L103.49-21Q102.94-21.3 102.34-21.45 101.74-21.6 101.09-21.6L101.09-21.6Q100.24-21.6 99.36-21.33 98.49-21.05 97.79-20.5L97.79-20.5 97.74-0.8Q97.74-0.4 97.56-0.25 97.39-0.1 96.54-0.05 95.69 0 93.64 0ZM112.98 0.5L112.98 0.5Q111.28 0.5 109.81 0.03 108.33-0.45 107.26-1.7 106.18-2.95 105.61-5.25 105.03-7.55 105.03-11.2L105.03-11.2Q105.03-15.9 105.78-18.75 106.53-21.6 107.78-23.05 109.03-24.5 110.63-25 112.23-25.5 113.88-25.5L113.88-25.5Q117.03-25.5 118.63-23.5 120.23-21.5 120.23-17.45L120.23-17.45Q120.23-15.8 120.11-14.05 119.98-12.3 119.63-10.95L119.63-10.95Q117.93-10.6 115.83-10.45 113.73-10.3 111.83-10.23 109.93-10.15 108.71-10.15 107.48-10.15 107.48-10.15L107.48-10.15 107.53-13.45Q107.53-13.45 108.48-13.43 109.43-13.4 110.81-13.43 112.18-13.45 113.61-13.58 115.03-13.7 116.03-14L116.03-14Q116.18-14.7 116.23-15.5 116.28-16.3 116.28-17L116.28-17Q116.23-19.7 115.66-20.83 115.08-21.95 113.43-21.95L113.43-21.95Q112.58-21.95 111.81-21.48 111.03-21 110.43-19.83 109.83-18.65 109.51-16.6 109.18-14.55 109.18-11.35L109.18-11.35Q109.18-9 109.46-7.45 109.73-5.9 110.31-5.05 110.88-4.2 111.76-3.83 112.63-3.45 113.88-3.45L113.88-3.45Q115.38-3.45 116.86-3.85 118.33-4.25 119.53-5L119.53-5Q119.78-4.4 119.86-3.63 119.93-2.85 119.93-2.25L119.93-2.25Q119.93-1.5 118.98-0.85 118.03-0.2 116.46 0.15 114.88 0.5 112.98 0.5ZM123.78 0L123.78 0 123.78-23.8Q124.78-24.25 126.13-24.63 127.48-25 128.93-25.25 130.38-25.5 131.73-25.5L131.73-25.5Q134.33-25.5 135.88-24.83 137.43-24.15 138.08-22.7 138.73-21.25 138.73-18.8L138.73-18.8 138.73-0.8Q138.73-0.4 138.53-0.25 138.33-0.1 137.48-0.05 136.63 0 134.53 0L134.53 0 134.53-17.6Q134.53-19.95 133.98-20.95 133.43-21.95 131.58-21.95L131.58-21.95Q130.73-21.95 129.68-21.75 128.63-21.55 127.83-21.05L127.83-21.05 127.83-0.8Q127.83-0.4 127.66-0.25 127.48-0.1 126.63-0.05 125.78 0 123.78 0ZM150.78 0.5L150.78 0.5Q149.13 0.5 147.68 0.13 146.23-0.25 145.08-1.48 143.93-2.7 143.3-5.13 142.68-7.55 142.68-11.6L142.68-11.6Q142.68-16.55 143.7-19.63 144.73-22.7 146.45-24.1 148.18-25.5 150.33-25.5L150.33-25.5Q151.48-25.5 152.38-25.25 153.28-25 153.88-24.5L153.88-24.5 153.88-34.9Q153.88-35.85 154.2-36.23 154.53-36.6 155.43-36.68 156.33-36.75 157.93-36.75L157.93-36.75 157.93-1Q156.73-0.4 154.9 0.05 153.08 0.5 150.78 0.5ZM150.93-3.15L150.93-3.15Q151.78-3.15 152.53-3.33 153.28-3.5 153.88-3.9L153.88-3.9 153.88-21.3Q153.43-21.7 152.9-21.83 152.38-21.95 151.58-21.95L151.58-21.95Q150.78-21.95 149.98-21.55 149.18-21.15 148.53-20.08 147.88-19 147.53-17.07 147.18-15.15 147.18-12.05L147.18-12.05Q147.18-9.2 147.43-7.45 147.68-5.7 148.18-4.78 148.68-3.85 149.35-3.5 150.03-3.15 150.93-3.15Z" opacity="1" transform="matrix(1,0,0,1,0,0)" fill="#000000" class="wordmark-text-0" data-fill-palette-color="quaternary" id="text-0"></path></svg></g></svg></g></svg></g></svg></g><g transform="matrix(1,0,0,1,0,4.734101402253593)"><svg viewBox="0 0 120.53294285030357 110.89030742227929" height="110.89030742227929" width="120.53294285030357"><g><svg xmlns="http://www.w3.org/2000/svg" xmlns:xlink="http://www.w3.org/1999/xlink" version="1.1" x="0" y="0" viewBox="1 3 99.99999999999999 92" enable-background="new 0 0 102 98" xml:space="preserve" height="110.89030742227929" width="120.53294285030357" class="icon-icon-0" data-fill-palette-color="accent" id="icon-0"></svg></g></svg></g></svg></g><defs></defs><mask id="f0670130-7b70-4d2e-a326-c85a6572bfc4"><g id="SvgjsG1197"><svg viewBox="0 0 395.52 89.46781241914235" height="89.46781241914235" width="395.52"><g><svg viewBox="0 0 532.0818367826024 120.35851022678648" height="89.46781241914235" width="395.52"><g transform="matrix(1,0,0,1,136.56183678260243,0)"><svg viewBox="0 0 395.52 120.35851022678648" height="120.35851022678648" width="395.52"><g id="SvgjsG1196"><svg viewBox="0 0 395.52 120.35851022678648" height="120.35851022678648" width="395.52" id="SvgjsSvg1195"><g><svg viewBox="0 0 395.52 120.35851022678648" height="120.35851022678648" width="395.52"><path d="M394.594 25.815C392.735 13.321 387.435 9.848 387.435 9.848 371.165-3.02 350.86-0.246 332.619 1.603 300.414 1.678 268.339 4.426 236.208 5.9 168.767 6.125 100.749 2.427 33.643 11.547 27.339 14.346-6.54 12.097 1.121 27.414 3.129 33.785 10.456 40.856 10.232 46.703 11.236 47.728 12.631 45.379 13.226 46.853 15.309 50.826 18.711 48.952 21.501 51.301 17.614 57.572 20.403 62.794 23.062 68.266 18.377 69.691 12.371 69.016 9.675 73.738 9.396 77.162 7.89 76.512 6.235 76.362 5.026 76.262 2.59 76.637 2.999 77.711 4.394 81.384-1.594 83.508 2.162 87.106-0.422 91.004 3.948 94.377 3.353 98.6 3.278 99.449 3.687 100.174 4.338 100.374 7.22 101.448 3.018 103.547 3.464 105.821 33.029 121.362 65.104 110.618 95.394 117.764 103.259 112.767 97.346 119.538 100.489 118.489 102.943 117.265 104.728 122.337 107.499 119.463 107.927 118.639 107.276 116.69 108.8 117.065 109.6 117.265 110.307 117.215 110.418 116.065 110.586 114.341 109.117 115.416 108.726 114.516 112.947 109.969 111.906 120.788 115.866 120.338 115.68 119.014 114.528 117.115 116.889 117.365 119.232 115.466 119.306 113.891 121.389 118.164 121.463 119.089 121.835 119.738 122.43 120.188 128.938 115.541 135.409 121.837 142.233 119.738 146.417 117.44 150.433 120.988 154.672 120.113 156.16 119.413 157.666 118.164 159.098 120.263 176.632 120.713 195.319 118.839 211.943 120.338 256.364 117.539 303.836 121.487 350.674 117.789 361.719 116.365 373.192 114.341 383.958 112.717 383.958 112.717 392.679 108.27 392.679 88.28S394.538 70.79 394.817 54.874C395.096 38.957 396.398 38.308 394.538 25.815Z" opacity="1" fill="black"></path><g transform="matrix(1,0,0,1,55.76832,26.230666666666675)"><svg width="283.98335999999995" viewBox="2.15 -36.75 155.78 37.25" height="67.89717689345314" data-palette-color="#000000"><path d="M2.15 0L2.15 0 2.15-33.15Q2.15-34.1 2.35-34.48 2.55-34.85 3.43-34.93 4.3-35 6.3-35L6.3-35 6.3-0.8Q6.3-0.4 6.1-0.25 5.9-0.1 5.08-0.05 4.25 0 2.15 0ZM10.7 0L10.7 0 10.7-23.8Q11.7-24.25 13.05-24.63 14.4-25 15.85-25.25 17.3-25.5 18.65-25.5L18.65-25.5Q21.25-25.5 22.8-24.83 24.35-24.15 25-22.7 25.65-21.25 25.65-18.8L25.65-18.8 25.65-0.8Q25.65-0.4 25.45-0.25 25.25-0.1 24.4-0.05 23.55 0 21.45 0L21.45 0 21.45-17.6Q21.45-19.95 20.9-20.95 20.35-21.95 18.5-21.95L18.5-21.95Q17.65-21.95 16.6-21.75 15.55-21.55 14.75-21.05L14.75-21.05 14.75-0.8Q14.75-0.4 14.57-0.25 14.4-0.1 13.55-0.05 12.7 0 10.7 0ZM35.45 0.5L35.45 0.5Q32.8 0.5 31.07-0.13 29.35-0.75 29.35-2.05L29.35-2.05Q29.35-2.5 29.5-3.13 29.65-3.75 30.05-4.4L30.05-4.4Q31.15-3.75 32.37-3.45 33.59-3.15 35.05-3.15L35.05-3.15Q36.95-3.15 38.02-3.93 39.09-4.7 39.09-6.25L39.09-6.25Q39.09-7.25 38.67-8.2 38.25-9.15 37.09-10.15L37.09-10.15 32.25-14.3Q30.55-15.7 29.97-17.03 29.4-18.35 29.4-19.6L29.4-19.6Q29.4-21.35 30.27-22.68 31.15-24 32.97-24.75 34.8-25.5 37.55-25.5L37.55-25.5Q40.15-25.5 41.47-25 42.8-24.5 43.32-23.88 43.84-23.25 43.84-22.7L43.84-22.7Q43.84-21.65 42.95-20.65L42.95-20.65Q41.84-21.35 40.65-21.65 39.45-21.95 38.05-21.95L38.05-21.95Q36.25-21.95 35.17-21.33 34.09-20.7 34.09-19.55L34.09-19.55Q34.09-18.9 34.47-18.2 34.84-17.5 36.09-16.45L36.09-16.45 40.75-12.7Q42.4-11.15 43.05-9.75 43.7-8.35 43.7-6.45L43.7-6.45Q43.7-3.15 41.5-1.33 39.3 0.5 35.45 0.5ZM54.19 0.5L54.19 0.5Q52.09 0.5 51.07-0.43 50.04-1.35 49.74-3.03 49.44-4.7 49.44-6.95L49.44-6.95 49.44-21.5 46.04-21.5Q46.04-23.1 46.07-23.83 46.09-24.55 46.29-24.78 46.49-25 46.89-25L46.89-25 49.44-25 49.44-32.6Q49.44-33.35 49.77-33.63 50.09-33.9 50.97-33.95 51.84-34 53.49-34L53.49-34 53.49-25 58.59-25Q58.59-23.45 58.57-22.7 58.54-21.95 58.37-21.73 58.19-21.5 57.79-21.5L57.79-21.5 53.49-21.5 53.49-6.95Q53.49-5.9 53.57-4.98 53.64-4.05 54.02-3.53 54.39-3 55.29-3L55.29-3Q56.14-3 56.79-3.18 57.44-3.35 58.19-3.75L58.19-3.75Q58.29-3.35 58.39-2.85 58.49-2.35 58.49-1.7L58.49-1.7Q58.49-0.8 57.82-0.33 57.14 0.15 56.17 0.33 55.19 0.5 54.19 0.5ZM67.94 0.5L67.94 0.5Q66.54 0.5 65.27 0.28 63.99 0.05 62.99-0.73 61.99-1.5 61.39-3 60.79-4.5 60.79-7.1L60.79-7.1Q60.79-9.7 61.34-11.33 61.89-12.95 62.84-13.83 63.79-14.7 64.99-15 66.19-15.3 67.44-15.3L67.44-15.3Q68.24-15.3 69.31-15.15 70.39-15 71.14-14.65L71.14-14.65Q71.14-14.65 71.14-15.35 71.14-16.05 71.14-16.98 71.14-17.9 71.14-18.6L71.14-18.6Q71.14-19.8 70.77-20.43 70.39-21.05 69.72-21.33 69.04-21.6 68.04-21.6L68.04-21.6Q66.09-21.6 64.29-21.25 62.49-20.9 61.39-20.45L61.39-20.45Q61.04-21.05 60.94-21.68 60.84-22.3 60.84-22.8L60.84-22.8Q60.84-23.15 60.97-23.55 61.09-23.95 61.39-24.15L61.39-24.15Q62.04-24.55 64.09-25.03 66.14-25.5 68.99-25.5L68.99-25.5Q72.24-25.5 73.72-24.15 75.19-22.8 75.19-19.4L75.19-19.4 75.19-16.75Q75.19-13.9 75.17-11.03 75.14-8.15 75.09-5.63 75.04-3.1 74.89-1.2L74.89-1.2Q73.89-0.6 72.14-0.05 70.39 0.5 67.94 0.5ZM68.34-2.9L68.34-2.9Q69.14-2.9 69.89-3.15 70.64-3.4 70.94-3.75L70.94-3.75Q71.04-4.55 71.06-5.95 71.09-7.35 71.12-8.9 71.14-10.45 71.14-11.8L71.14-11.8Q70.64-12.05 69.97-12.15 69.29-12.25 68.79-12.25L68.79-12.25Q67.99-12.25 67.31-12.08 66.64-11.9 66.14-11.38 65.64-10.85 65.34-9.85 65.04-8.85 65.04-7.2L65.04-7.2Q65.04-5.85 65.27-5 65.49-4.15 65.94-3.68 66.39-3.2 66.99-3.05 67.59-2.9 68.34-2.9ZM81.24 0L81.24 0 81.24-34.4Q81.24-34.4 81.34-34.48 81.44-34.55 82.04-34.55L82.04-34.55 84.44-34.55Q85.09-34.55 85.19-34.48 85.29-34.4 85.29-34.4L85.29-34.4 85.29-0.8Q85.29-0.4 85.11-0.25 84.94-0.1 84.09-0.05 83.24 0 81.24 0ZM91.44-31.2L74.44-31.2 74.44-34.2Q74.44-35 75.29-35L75.29-35 92.29-35 92.29-32Q92.29-31.55 92.09-31.38 91.89-31.2 91.44-31.2L91.44-31.2ZM93.64 0L93.64 0 93.64-23.25Q95.09-24.3 96.84-24.9 98.59-25.5 100.44-25.5L100.44-25.5Q102.39-25.5 103.16-24.98 103.94-24.45 103.94-23.4L103.94-23.4Q103.94-23 103.84-22.33 103.74-21.65 103.49-21L103.49-21Q102.94-21.3 102.34-21.45 101.74-21.6 101.09-21.6L101.09-21.6Q100.24-21.6 99.36-21.33 98.49-21.05 97.79-20.5L97.79-20.5 97.74-0.8Q97.74-0.4 97.56-0.25 97.39-0.1 96.54-0.05 95.69 0 93.64 0ZM112.98 0.5L112.98 0.5Q111.28 0.5 109.81 0.03 108.33-0.45 107.26-1.7 106.18-2.95 105.61-5.25 105.03-7.55 105.03-11.2L105.03-11.2Q105.03-15.9 105.78-18.75 106.53-21.6 107.78-23.05 109.03-24.5 110.63-25 112.23-25.5 113.88-25.5L113.88-25.5Q117.03-25.5 118.63-23.5 120.23-21.5 120.23-17.45L120.23-17.45Q120.23-15.8 120.11-14.05 119.98-12.3 119.63-10.95L119.63-10.95Q117.93-10.6 115.83-10.45 113.73-10.3 111.83-10.23 109.93-10.15 108.71-10.15 107.48-10.15 107.48-10.15L107.48-10.15 107.53-13.45Q107.53-13.45 108.48-13.43 109.43-13.4 110.81-13.43 112.18-13.45 113.61-13.58 115.03-13.7 116.03-14L116.03-14Q116.18-14.7 116.23-15.5 116.28-16.3 116.28-17L116.28-17Q116.23-19.7 115.66-20.83 115.08-21.95 113.43-21.95L113.43-21.95Q112.58-21.95 111.81-21.48 111.03-21 110.43-19.83 109.83-18.65 109.51-16.6 109.18-14.55 109.18-11.35L109.18-11.35Q109.18-9 109.46-7.45 109.73-5.9 110.31-5.05 110.88-4.2 111.76-3.83 112.63-3.45 113.88-3.45L113.88-3.45Q115.38-3.45 116.86-3.85 118.33-4.25 119.53-5L119.53-5Q119.78-4.4 119.86-3.63 119.93-2.85 119.93-2.25L119.93-2.25Q119.93-1.5 118.98-0.85 118.03-0.2 116.46 0.15 114.88 0.5 112.98 0.5ZM123.78 0L123.78 0 123.78-23.8Q124.78-24.25 126.13-24.63 127.48-25 128.93-25.25 130.38-25.5 131.73-25.5L131.73-25.5Q134.33-25.5 135.88-24.83 137.43-24.15 138.08-22.7 138.73-21.25 138.73-18.8L138.73-18.8 138.73-0.8Q138.73-0.4 138.53-0.25 138.33-0.1 137.48-0.05 136.63 0 134.53 0L134.53 0 134.53-17.6Q134.53-19.95 133.98-20.95 133.43-21.95 131.58-21.95L131.58-21.95Q130.73-21.95 129.68-21.75 128.63-21.55 127.83-21.05L127.83-21.05 127.83-0.8Q127.83-0.4 127.66-0.25 127.48-0.1 126.63-0.05 125.78 0 123.78 0ZM150.78 0.5L150.78 0.5Q149.13 0.5 147.68 0.13 146.23-0.25 145.08-1.48 143.93-2.7 143.3-5.13 142.68-7.55 142.68-11.6L142.68-11.6Q142.68-16.55 143.7-19.63 144.73-22.7 146.45-24.1 148.18-25.5 150.33-25.5L150.33-25.5Q151.48-25.5 152.38-25.25 153.28-25 153.88-24.5L153.88-24.5 153.88-34.9Q153.88-35.85 154.2-36.23 154.53-36.6 155.43-36.68 156.33-36.75 157.93-36.75L157.93-36.75 157.93-1Q156.73-0.4 154.9 0.05 153.08 0.5 150.78 0.5ZM150.93-3.15L150.93-3.15Q151.78-3.15 152.53-3.33 153.28-3.5 153.88-3.9L153.88-3.9 153.88-21.3Q153.43-21.7 152.9-21.83 152.38-21.95 151.58-21.95L151.58-21.95Q150.78-21.95 149.98-21.55 149.18-21.15 148.53-20.08 147.88-19 147.53-17.07 147.18-15.15 147.18-12.05L147.18-12.05Q147.18-9.2 147.43-7.45 147.68-5.7 148.18-4.78 148.68-3.85 149.35-3.5 150.03-3.15 150.93-3.15Z" opacity="1" transform="matrix(1,0,0,1,0,0)" fill="black" class="wordmark-text-0" id="SvgjsPath1194"></path></svg></g></svg></g></svg></g></svg></g><g transform="matrix(1,0,0,1,0,4.734101402253593)"><svg viewBox="0 0 120.53294285030357 110.89030742227929" height="110.89030742227929" width="120.53294285030357"><g><svg xmlns="http://www.w3.org/2000/svg" xmlns:xlink="http://www.w3.org/1999/xlink" version="1.1" x="0" y="0" viewBox="1 3 99.99999999999999 92" enable-background="new 0 0 102 98" xml:space="preserve" height="110.89030742227929" width="120.53294285030357" class="icon-icon-0" data-fill-palette-color="accent" id="SvgjsSvg1193"><g fill="white"><path d="M93.867 18H82.374c-4.063-7-7.926-15-16.879-15H52.006c-8.955 0-12.817 8-16.878 15H22.263c-0.986-1-1.912-1-4.083-1h-2.355c-2.172 0-3.097 0-4.083 1H8.133C4.345 18 1 20.641 1 24.429v63.443C1 91.66 4.345 95 8.133 95h85.734c3.788 0 7.133-3.34 7.133-7.128V24.429C101 20.641 97.655 18 93.867 18zM59.002 77.292c-15.783 0-28.578-12.793-28.578-28.577S43.22 20.139 59.002 20.139c15.782 0 28.579 12.793 28.579 28.577S74.784 77.292 59.002 77.292z" fill="white"></path><circle cx="58.944" cy="48.717" r="26" fill="white"></circle></g></svg></g></svg></g></svg></g><defs><mask></mask></defs></svg><rect width="395.52" height="89.46781241914235" fill="black" stroke="none" visibility="hidden"></rect></g></mask><linearGradient x1="0" x2="1" y1="0.5" y2="0.5" id="119667b6-8515-4831-9b81-b47a1566a499"><stop stop-color="#ffa62e" offset="0"></stop><stop stop-color="#f71b3d" offset="1"></stop></linearGradient><rect width="395.520059467544" height="89.4678241126098" fill="url(#119667b6-8515-4831-9b81-b47a1566a499)" mask="url(#f0670130-7b70-4d2e-a326-c85a6572bfc4)" data-fill-palette-color="accent"></rect><mask id="777462fa-48a8-4a1a-b44b-27dbf4bfa643"><g id="SvgjsG1207"><svg viewBox="0 0 395.52 89.46781241914235" height="89.46781241914235" width="395.52"><g><svg viewBox="0 0 532.0818367826024 120.35851022678648" height="89.46781241914235" width="395.52"><g transform="matrix(1,0,0,1,136.56183678260243,0)"><svg viewBox="0 0 395.52 120.35851022678648" height="120.35851022678648" width="395.52"><g id="SvgjsG1206"><svg viewBox="0 0 395.52 120.35851022678648" height="120.35851022678648" width="395.52" id="SvgjsSvg1205"><g><svg viewBox="0 0 395.52 120.35851022678648" height="120.35851022678648" width="395.52"><path d="M394.594 25.815C392.735 13.321 387.435 9.848 387.435 9.848 371.165-3.02 350.86-0.246 332.619 1.603 300.414 1.678 268.339 4.426 236.208 5.9 168.767 6.125 100.749 2.427 33.643 11.547 27.339 14.346-6.54 12.097 1.121 27.414 3.129 33.785 10.456 40.856 10.232 46.703 11.236 47.728 12.631 45.379 13.226 46.853 15.309 50.826 18.711 48.952 21.501 51.301 17.614 57.572 20.403 62.794 23.062 68.266 18.377 69.691 12.371 69.016 9.675 73.738 9.396 77.162 7.89 76.512 6.235 76.362 5.026 76.262 2.59 76.637 2.999 77.711 4.394 81.384-1.594 83.508 2.162 87.106-0.422 91.004 3.948 94.377 3.353 98.6 3.278 99.449 3.687 100.174 4.338 100.374 7.22 101.448 3.018 103.547 3.464 105.821 33.029 121.362 65.104 110.618 95.394 117.764 103.259 112.767 97.346 119.538 100.489 118.489 102.943 117.265 104.728 122.337 107.499 119.463 107.927 118.639 107.276 116.69 108.8 117.065 109.6 117.265 110.307 117.215 110.418 116.065 110.586 114.341 109.117 115.416 108.726 114.516 112.947 109.969 111.906 120.788 115.866 120.338 115.68 119.014 114.528 117.115 116.889 117.365 119.232 115.466 119.306 113.891 121.389 118.164 121.463 119.089 121.835 119.738 122.43 120.188 128.938 115.541 135.409 121.837 142.233 119.738 146.417 117.44 150.433 120.988 154.672 120.113 156.16 119.413 157.666 118.164 159.098 120.263 176.632 120.713 195.319 118.839 211.943 120.338 256.364 117.539 303.836 121.487 350.674 117.789 361.719 116.365 373.192 114.341 383.958 112.717 383.958 112.717 392.679 108.27 392.679 88.28S394.538 70.79 394.817 54.874C395.096 38.957 396.398 38.308 394.538 25.815Z" opacity="1" fill="white"></path><g transform="matrix(1,0,0,1,55.76832,26.230666666666675)"><svg width="283.98335999999995" viewBox="2.15 -36.75 155.78 37.25" height="67.89717689345314" data-palette-color="#000000"><path d="M2.15 0L2.15 0 2.15-33.15Q2.15-34.1 2.35-34.48 2.55-34.85 3.43-34.93 4.3-35 6.3-35L6.3-35 6.3-0.8Q6.3-0.4 6.1-0.25 5.9-0.1 5.08-0.05 4.25 0 2.15 0ZM10.7 0L10.7 0 10.7-23.8Q11.7-24.25 13.05-24.63 14.4-25 15.85-25.25 17.3-25.5 18.65-25.5L18.65-25.5Q21.25-25.5 22.8-24.83 24.35-24.15 25-22.7 25.65-21.25 25.65-18.8L25.65-18.8 25.65-0.8Q25.65-0.4 25.45-0.25 25.25-0.1 24.4-0.05 23.55 0 21.45 0L21.45 0 21.45-17.6Q21.45-19.95 20.9-20.95 20.35-21.95 18.5-21.95L18.5-21.95Q17.65-21.95 16.6-21.75 15.55-21.55 14.75-21.05L14.75-21.05 14.75-0.8Q14.75-0.4 14.57-0.25 14.4-0.1 13.55-0.05 12.7 0 10.7 0ZM35.45 0.5L35.45 0.5Q32.8 0.5 31.07-0.13 29.35-0.75 29.35-2.05L29.35-2.05Q29.35-2.5 29.5-3.13 29.65-3.75 30.05-4.4L30.05-4.4Q31.15-3.75 32.37-3.45 33.59-3.15 35.05-3.15L35.05-3.15Q36.95-3.15 38.02-3.93 39.09-4.7 39.09-6.25L39.09-6.25Q39.09-7.25 38.67-8.2 38.25-9.15 37.09-10.15L37.09-10.15 32.25-14.3Q30.55-15.7 29.97-17.03 29.4-18.35 29.4-19.6L29.4-19.6Q29.4-21.35 30.27-22.68 31.15-24 32.97-24.75 34.8-25.5 37.55-25.5L37.55-25.5Q40.15-25.5 41.47-25 42.8-24.5 43.32-23.88 43.84-23.25 43.84-22.7L43.84-22.7Q43.84-21.65 42.95-20.65L42.95-20.65Q41.84-21.35 40.65-21.65 39.45-21.95 38.05-21.95L38.05-21.95Q36.25-21.95 35.17-21.33 34.09-20.7 34.09-19.55L34.09-19.55Q34.09-18.9 34.47-18.2 34.84-17.5 36.09-16.45L36.09-16.45 40.75-12.7Q42.4-11.15 43.05-9.75 43.7-8.35 43.7-6.45L43.7-6.45Q43.7-3.15 41.5-1.33 39.3 0.5 35.45 0.5ZM54.19 0.5L54.19 0.5Q52.09 0.5 51.07-0.43 50.04-1.35 49.74-3.03 49.44-4.7 49.44-6.95L49.44-6.95 49.44-21.5 46.04-21.5Q46.04-23.1 46.07-23.83 46.09-24.55 46.29-24.78 46.49-25 46.89-25L46.89-25 49.44-25 49.44-32.6Q49.44-33.35 49.77-33.63 50.09-33.9 50.97-33.95 51.84-34 53.49-34L53.49-34 53.49-25 58.59-25Q58.59-23.45 58.57-22.7 58.54-21.95 58.37-21.73 58.19-21.5 57.79-21.5L57.79-21.5 53.49-21.5 53.49-6.95Q53.49-5.9 53.57-4.98 53.64-4.05 54.02-3.53 54.39-3 55.29-3L55.29-3Q56.14-3 56.79-3.18 57.44-3.35 58.19-3.75L58.19-3.75Q58.29-3.35 58.39-2.85 58.49-2.35 58.49-1.7L58.49-1.7Q58.49-0.8 57.82-0.33 57.14 0.15 56.17 0.33 55.19 0.5 54.19 0.5ZM67.94 0.5L67.94 0.5Q66.54 0.5 65.27 0.28 63.99 0.05 62.99-0.73 61.99-1.5 61.39-3 60.79-4.5 60.79-7.1L60.79-7.1Q60.79-9.7 61.34-11.33 61.89-12.95 62.84-13.83 63.79-14.7 64.99-15 66.19-15.3 67.44-15.3L67.44-15.3Q68.24-15.3 69.31-15.15 70.39-15 71.14-14.65L71.14-14.65Q71.14-14.65 71.14-15.35 71.14-16.05 71.14-16.98 71.14-17.9 71.14-18.6L71.14-18.6Q71.14-19.8 70.77-20.43 70.39-21.05 69.72-21.33 69.04-21.6 68.04-21.6L68.04-21.6Q66.09-21.6 64.29-21.25 62.49-20.9 61.39-20.45L61.39-20.45Q61.04-21.05 60.94-21.68 60.84-22.3 60.84-22.8L60.84-22.8Q60.84-23.15 60.97-23.55 61.09-23.95 61.39-24.15L61.39-24.15Q62.04-24.55 64.09-25.03 66.14-25.5 68.99-25.5L68.99-25.5Q72.24-25.5 73.72-24.15 75.19-22.8 75.19-19.4L75.19-19.4 75.19-16.75Q75.19-13.9 75.17-11.03 75.14-8.15 75.09-5.63 75.04-3.1 74.89-1.2L74.89-1.2Q73.89-0.6 72.14-0.05 70.39 0.5 67.94 0.5ZM68.34-2.9L68.34-2.9Q69.14-2.9 69.89-3.15 70.64-3.4 70.94-3.75L70.94-3.75Q71.04-4.55 71.06-5.95 71.09-7.35 71.12-8.9 71.14-10.45 71.14-11.8L71.14-11.8Q70.64-12.05 69.97-12.15 69.29-12.25 68.79-12.25L68.79-12.25Q67.99-12.25 67.31-12.08 66.64-11.9 66.14-11.38 65.64-10.85 65.34-9.85 65.04-8.85 65.04-7.2L65.04-7.2Q65.04-5.85 65.27-5 65.49-4.15 65.94-3.68 66.39-3.2 66.99-3.05 67.59-2.9 68.34-2.9ZM81.24 0L81.24 0 81.24-34.4Q81.24-34.4 81.34-34.48 81.44-34.55 82.04-34.55L82.04-34.55 84.44-34.55Q85.09-34.55 85.19-34.48 85.29-34.4 85.29-34.4L85.29-34.4 85.29-0.8Q85.29-0.4 85.11-0.25 84.94-0.1 84.09-0.05 83.24 0 81.24 0ZM91.44-31.2L74.44-31.2 74.44-34.2Q74.44-35 75.29-35L75.29-35 92.29-35 92.29-32Q92.29-31.55 92.09-31.38 91.89-31.2 91.44-31.2L91.44-31.2ZM93.64 0L93.64 0 93.64-23.25Q95.09-24.3 96.84-24.9 98.59-25.5 100.44-25.5L100.44-25.5Q102.39-25.5 103.16-24.98 103.94-24.45 103.94-23.4L103.94-23.4Q103.94-23 103.84-22.33 103.74-21.65 103.49-21L103.49-21Q102.94-21.3 102.34-21.45 101.74-21.6 101.09-21.6L101.09-21.6Q100.24-21.6 99.36-21.33 98.49-21.05 97.79-20.5L97.79-20.5 97.74-0.8Q97.74-0.4 97.56-0.25 97.39-0.1 96.54-0.05 95.69 0 93.64 0ZM112.98 0.5L112.98 0.5Q111.28 0.5 109.81 0.03 108.33-0.45 107.26-1.7 106.18-2.95 105.61-5.25 105.03-7.55 105.03-11.2L105.03-11.2Q105.03-15.9 105.78-18.75 106.53-21.6 107.78-23.05 109.03-24.5 110.63-25 112.23-25.5 113.88-25.5L113.88-25.5Q117.03-25.5 118.63-23.5 120.23-21.5 120.23-17.45L120.23-17.45Q120.23-15.8 120.11-14.05 119.98-12.3 119.63-10.95L119.63-10.95Q117.93-10.6 115.83-10.45 113.73-10.3 111.83-10.23 109.93-10.15 108.71-10.15 107.48-10.15 107.48-10.15L107.48-10.15 107.53-13.45Q107.53-13.45 108.48-13.43 109.43-13.4 110.81-13.43 112.18-13.45 113.61-13.58 115.03-13.7 116.03-14L116.03-14Q116.18-14.7 116.23-15.5 116.28-16.3 116.28-17L116.28-17Q116.23-19.7 115.66-20.83 115.08-21.95 113.43-21.95L113.43-21.95Q112.58-21.95 111.81-21.48 111.03-21 110.43-19.83 109.83-18.65 109.51-16.6 109.18-14.55 109.18-11.35L109.18-11.35Q109.18-9 109.46-7.45 109.73-5.9 110.31-5.05 110.88-4.2 111.76-3.83 112.63-3.45 113.88-3.45L113.88-3.45Q115.38-3.45 116.86-3.85 118.33-4.25 119.53-5L119.53-5Q119.78-4.4 119.86-3.63 119.93-2.85 119.93-2.25L119.93-2.25Q119.93-1.5 118.98-0.85 118.03-0.2 116.46 0.15 114.88 0.5 112.98 0.5ZM123.78 0L123.78 0 123.78-23.8Q124.78-24.25 126.13-24.63 127.48-25 128.93-25.25 130.38-25.5 131.73-25.5L131.73-25.5Q134.33-25.5 135.88-24.83 137.43-24.15 138.08-22.7 138.73-21.25 138.73-18.8L138.73-18.8 138.73-0.8Q138.73-0.4 138.53-0.25 138.33-0.1 137.48-0.05 136.63 0 134.53 0L134.53 0 134.53-17.6Q134.53-19.95 133.98-20.95 133.43-21.95 131.58-21.95L131.58-21.95Q130.73-21.95 129.68-21.75 128.63-21.55 127.83-21.05L127.83-21.05 127.83-0.8Q127.83-0.4 127.66-0.25 127.48-0.1 126.63-0.05 125.78 0 123.78 0ZM150.78 0.5L150.78 0.5Q149.13 0.5 147.68 0.13 146.23-0.25 145.08-1.48 143.93-2.7 143.3-5.13 142.68-7.55 142.68-11.6L142.68-11.6Q142.68-16.55 143.7-19.63 144.73-22.7 146.45-24.1 148.18-25.5 150.33-25.5L150.33-25.5Q151.48-25.5 152.38-25.25 153.28-25 153.88-24.5L153.88-24.5 153.88-34.9Q153.88-35.85 154.2-36.23 154.53-36.6 155.43-36.68 156.33-36.75 157.93-36.75L157.93-36.75 157.93-1Q156.73-0.4 154.9 0.05 153.08 0.5 150.78 0.5ZM150.93-3.15L150.93-3.15Q151.78-3.15 152.53-3.33 153.28-3.5 153.88-3.9L153.88-3.9 153.88-21.3Q153.43-21.7 152.9-21.83 152.38-21.95 151.58-21.95L151.58-21.95Q150.78-21.95 149.98-21.55 149.18-21.15 148.53-20.08 147.88-19 147.53-17.07 147.18-15.15 147.18-12.05L147.18-12.05Q147.18-9.2 147.43-7.45 147.68-5.7 148.18-4.78 148.68-3.85 149.35-3.5 150.03-3.15 150.93-3.15Z" opacity="1" transform="matrix(1,0,0,1,0,0)" fill="black" class="wordmark-text-0" id="SvgjsPath1204"></path></svg></g></svg></g></svg></g></svg></g><g transform="matrix(1,0,0,1,0,4.734101402253593)"><svg viewBox="0 0 120.53294285030357 110.89030742227929" height="110.89030742227929" width="120.53294285030357"><g><svg xmlns="http://www.w3.org/2000/svg" xmlns:xlink="http://www.w3.org/1999/xlink" version="1.1" x="0" y="0" viewBox="1 3 99.99999999999999 92" enable-background="new 0 0 102 98" xml:space="preserve" height="110.89030742227929" width="120.53294285030357" class="icon-icon-0" data-fill-palette-color="accent" id="SvgjsSvg1203"></svg></g></svg></g></svg></g><defs><mask></mask></defs><mask><g id="SvgjsG1202"><svg viewBox="0 0 395.52 89.46781241914235" height="89.46781241914235" width="395.52"><g><svg viewBox="0 0 532.0818367826024 120.35851022678648" height="89.46781241914235" width="395.52"><g transform="matrix(1,0,0,1,136.56183678260243,0)"><svg viewBox="0 0 395.52 120.35851022678648" height="120.35851022678648" width="395.52"><g id="SvgjsG1201"><svg viewBox="0 0 395.52 120.35851022678648" height="120.35851022678648" width="395.52" id="SvgjsSvg1200"><g><svg viewBox="0 0 395.52 120.35851022678648" height="120.35851022678648" width="395.52"><path d="M394.594 25.815C392.735 13.321 387.435 9.848 387.435 9.848 371.165-3.02 350.86-0.246 332.619 1.603 300.414 1.678 268.339 4.426 236.208 5.9 168.767 6.125 100.749 2.427 33.643 11.547 27.339 14.346-6.54 12.097 1.121 27.414 3.129 33.785 10.456 40.856 10.232 46.703 11.236 47.728 12.631 45.379 13.226 46.853 15.309 50.826 18.711 48.952 21.501 51.301 17.614 57.572 20.403 62.794 23.062 68.266 18.377 69.691 12.371 69.016 9.675 73.738 9.396 77.162 7.89 76.512 6.235 76.362 5.026 76.262 2.59 76.637 2.999 77.711 4.394 81.384-1.594 83.508 2.162 87.106-0.422 91.004 3.948 94.377 3.353 98.6 3.278 99.449 3.687 100.174 4.338 100.374 7.22 101.448 3.018 103.547 3.464 105.821 33.029 121.362 65.104 110.618 95.394 117.764 103.259 112.767 97.346 119.538 100.489 118.489 102.943 117.265 104.728 122.337 107.499 119.463 107.927 118.639 107.276 116.69 108.8 117.065 109.6 117.265 110.307 117.215 110.418 116.065 110.586 114.341 109.117 115.416 108.726 114.516 112.947 109.969 111.906 120.788 115.866 120.338 115.68 119.014 114.528 117.115 116.889 117.365 119.232 115.466 119.306 113.891 121.389 118.164 121.463 119.089 121.835 119.738 122.43 120.188 128.938 115.541 135.409 121.837 142.233 119.738 146.417 117.44 150.433 120.988 154.672 120.113 156.16 119.413 157.666 118.164 159.098 120.263 176.632 120.713 195.319 118.839 211.943 120.338 256.364 117.539 303.836 121.487 350.674 117.789 361.719 116.365 373.192 114.341 383.958 112.717 383.958 112.717 392.679 108.27 392.679 88.28S394.538 70.79 394.817 54.874C395.096 38.957 396.398 38.308 394.538 25.815Z" opacity="1" fill="black"></path><g transform="matrix(1,0,0,1,55.76832,26.230666666666675)"><svg width="283.98335999999995" viewBox="2.15 -36.75 155.78 37.25" height="67.89717689345314" data-palette-color="#000000"><path d="M2.15 0L2.15 0 2.15-33.15Q2.15-34.1 2.35-34.48 2.55-34.85 3.43-34.93 4.3-35 6.3-35L6.3-35 6.3-0.8Q6.3-0.4 6.1-0.25 5.9-0.1 5.08-0.05 4.25 0 2.15 0ZM10.7 0L10.7 0 10.7-23.8Q11.7-24.25 13.05-24.63 14.4-25 15.85-25.25 17.3-25.5 18.65-25.5L18.65-25.5Q21.25-25.5 22.8-24.83 24.35-24.15 25-22.7 25.65-21.25 25.65-18.8L25.65-18.8 25.65-0.8Q25.65-0.4 25.45-0.25 25.25-0.1 24.4-0.05 23.55 0 21.45 0L21.45 0 21.45-17.6Q21.45-19.95 20.9-20.95 20.35-21.95 18.5-21.95L18.5-21.95Q17.65-21.95 16.6-21.75 15.55-21.55 14.75-21.05L14.75-21.05 14.75-0.8Q14.75-0.4 14.57-0.25 14.4-0.1 13.55-0.05 12.7 0 10.7 0ZM35.45 0.5L35.45 0.5Q32.8 0.5 31.07-0.13 29.35-0.75 29.35-2.05L29.35-2.05Q29.35-2.5 29.5-3.13 29.65-3.75 30.05-4.4L30.05-4.4Q31.15-3.75 32.37-3.45 33.59-3.15 35.05-3.15L35.05-3.15Q36.95-3.15 38.02-3.93 39.09-4.7 39.09-6.25L39.09-6.25Q39.09-7.25 38.67-8.2 38.25-9.15 37.09-10.15L37.09-10.15 32.25-14.3Q30.55-15.7 29.97-17.03 29.4-18.35 29.4-19.6L29.4-19.6Q29.4-21.35 30.27-22.68 31.15-24 32.97-24.75 34.8-25.5 37.55-25.5L37.55-25.5Q40.15-25.5 41.47-25 42.8-24.5 43.32-23.88 43.84-23.25 43.84-22.7L43.84-22.7Q43.84-21.65 42.95-20.65L42.95-20.65Q41.84-21.35 40.65-21.65 39.45-21.95 38.05-21.95L38.05-21.95Q36.25-21.95 35.17-21.33 34.09-20.7 34.09-19.55L34.09-19.55Q34.09-18.9 34.47-18.2 34.84-17.5 36.09-16.45L36.09-16.45 40.75-12.7Q42.4-11.15 43.05-9.75 43.7-8.35 43.7-6.45L43.7-6.45Q43.7-3.15 41.5-1.33 39.3 0.5 35.45 0.5ZM54.19 0.5L54.19 0.5Q52.09 0.5 51.07-0.43 50.04-1.35 49.74-3.03 49.44-4.7 49.44-6.95L49.44-6.95 49.44-21.5 46.04-21.5Q46.04-23.1 46.07-23.83 46.09-24.55 46.29-24.78 46.49-25 46.89-25L46.89-25 49.44-25 49.44-32.6Q49.44-33.35 49.77-33.63 50.09-33.9 50.97-33.95 51.84-34 53.49-34L53.49-34 53.49-25 58.59-25Q58.59-23.45 58.57-22.7 58.54-21.95 58.37-21.73 58.19-21.5 57.79-21.5L57.79-21.5 53.49-21.5 53.49-6.95Q53.49-5.9 53.57-4.98 53.64-4.05 54.02-3.53 54.39-3 55.29-3L55.29-3Q56.14-3 56.79-3.18 57.44-3.35 58.19-3.75L58.19-3.75Q58.29-3.35 58.39-2.85 58.49-2.35 58.49-1.7L58.49-1.7Q58.49-0.8 57.82-0.33 57.14 0.15 56.17 0.33 55.19 0.5 54.19 0.5ZM67.94 0.5L67.94 0.5Q66.54 0.5 65.27 0.28 63.99 0.05 62.99-0.73 61.99-1.5 61.39-3 60.79-4.5 60.79-7.1L60.79-7.1Q60.79-9.7 61.34-11.33 61.89-12.95 62.84-13.83 63.79-14.7 64.99-15 66.19-15.3 67.44-15.3L67.44-15.3Q68.24-15.3 69.31-15.15 70.39-15 71.14-14.65L71.14-14.65Q71.14-14.65 71.14-15.35 71.14-16.05 71.14-16.98 71.14-17.9 71.14-18.6L71.14-18.6Q71.14-19.8 70.77-20.43 70.39-21.05 69.72-21.33 69.04-21.6 68.04-21.6L68.04-21.6Q66.09-21.6 64.29-21.25 62.49-20.9 61.39-20.45L61.39-20.45Q61.04-21.05 60.94-21.68 60.84-22.3 60.84-22.8L60.84-22.8Q60.84-23.15 60.97-23.55 61.09-23.95 61.39-24.15L61.39-24.15Q62.04-24.55 64.09-25.03 66.14-25.5 68.99-25.5L68.99-25.5Q72.24-25.5 73.72-24.15 75.19-22.8 75.19-19.4L75.19-19.4 75.19-16.75Q75.19-13.9 75.17-11.03 75.14-8.15 75.09-5.63 75.04-3.1 74.89-1.2L74.89-1.2Q73.89-0.6 72.14-0.05 70.39 0.5 67.94 0.5ZM68.34-2.9L68.34-2.9Q69.14-2.9 69.89-3.15 70.64-3.4 70.94-3.75L70.94-3.75Q71.04-4.55 71.06-5.95 71.09-7.35 71.12-8.9 71.14-10.45 71.14-11.8L71.14-11.8Q70.64-12.05 69.97-12.15 69.29-12.25 68.79-12.25L68.79-12.25Q67.99-12.25 67.31-12.08 66.64-11.9 66.14-11.38 65.64-10.85 65.34-9.85 65.04-8.85 65.04-7.2L65.04-7.2Q65.04-5.85 65.27-5 65.49-4.15 65.94-3.68 66.39-3.2 66.99-3.05 67.59-2.9 68.34-2.9ZM81.24 0L81.24 0 81.24-34.4Q81.24-34.4 81.34-34.48 81.44-34.55 82.04-34.55L82.04-34.55 84.44-34.55Q85.09-34.55 85.19-34.48 85.29-34.4 85.29-34.4L85.29-34.4 85.29-0.8Q85.29-0.4 85.11-0.25 84.94-0.1 84.09-0.05 83.24 0 81.24 0ZM91.44-31.2L74.44-31.2 74.44-34.2Q74.44-35 75.29-35L75.29-35 92.29-35 92.29-32Q92.29-31.55 92.09-31.38 91.89-31.2 91.44-31.2L91.44-31.2ZM93.64 0L93.64 0 93.64-23.25Q95.09-24.3 96.84-24.9 98.59-25.5 100.44-25.5L100.44-25.5Q102.39-25.5 103.16-24.98 103.94-24.45 103.94-23.4L103.94-23.4Q103.94-23 103.84-22.33 103.74-21.65 103.49-21L103.49-21Q102.94-21.3 102.34-21.45 101.74-21.6 101.09-21.6L101.09-21.6Q100.24-21.6 99.36-21.33 98.49-21.05 97.79-20.5L97.79-20.5 97.74-0.8Q97.74-0.4 97.56-0.25 97.39-0.1 96.54-0.05 95.69 0 93.64 0ZM112.98 0.5L112.98 0.5Q111.28 0.5 109.81 0.03 108.33-0.45 107.26-1.7 106.18-2.95 105.61-5.25 105.03-7.55 105.03-11.2L105.03-11.2Q105.03-15.9 105.78-18.75 106.53-21.6 107.78-23.05 109.03-24.5 110.63-25 112.23-25.5 113.88-25.5L113.88-25.5Q117.03-25.5 118.63-23.5 120.23-21.5 120.23-17.45L120.23-17.45Q120.23-15.8 120.11-14.05 119.98-12.3 119.63-10.95L119.63-10.95Q117.93-10.6 115.83-10.45 113.73-10.3 111.83-10.23 109.93-10.15 108.71-10.15 107.48-10.15 107.48-10.15L107.48-10.15 107.53-13.45Q107.53-13.45 108.48-13.43 109.43-13.4 110.81-13.43 112.18-13.45 113.61-13.58 115.03-13.7 116.03-14L116.03-14Q116.18-14.7 116.23-15.5 116.28-16.3 116.28-17L116.28-17Q116.23-19.7 115.66-20.83 115.08-21.95 113.43-21.95L113.43-21.95Q112.58-21.95 111.81-21.48 111.03-21 110.43-19.83 109.83-18.65 109.51-16.6 109.18-14.55 109.18-11.35L109.18-11.35Q109.18-9 109.46-7.45 109.73-5.9 110.31-5.05 110.88-4.2 111.76-3.83 112.63-3.45 113.88-3.45L113.88-3.45Q115.38-3.45 116.86-3.85 118.33-4.25 119.53-5L119.53-5Q119.78-4.4 119.86-3.63 119.93-2.85 119.93-2.25L119.93-2.25Q119.93-1.5 118.98-0.85 118.03-0.2 116.46 0.15 114.88 0.5 112.98 0.5ZM123.78 0L123.78 0 123.78-23.8Q124.78-24.25 126.13-24.63 127.48-25 128.93-25.25 130.38-25.5 131.73-25.5L131.73-25.5Q134.33-25.5 135.88-24.83 137.43-24.15 138.08-22.7 138.73-21.25 138.73-18.8L138.73-18.8 138.73-0.8Q138.73-0.4 138.53-0.25 138.33-0.1 137.48-0.05 136.63 0 134.53 0L134.53 0 134.53-17.6Q134.53-19.95 133.98-20.95 133.43-21.95 131.58-21.95L131.58-21.95Q130.73-21.95 129.68-21.75 128.63-21.55 127.83-21.05L127.83-21.05 127.83-0.8Q127.83-0.4 127.66-0.25 127.48-0.1 126.63-0.05 125.78 0 123.78 0ZM150.78 0.5L150.78 0.5Q149.13 0.5 147.68 0.13 146.23-0.25 145.08-1.48 143.93-2.7 143.3-5.13 142.68-7.55 142.68-11.6L142.68-11.6Q142.68-16.55 143.7-19.63 144.73-22.7 146.45-24.1 148.18-25.5 150.33-25.5L150.33-25.5Q151.48-25.5 152.38-25.25 153.28-25 153.88-24.5L153.88-24.5 153.88-34.9Q153.88-35.85 154.2-36.23 154.53-36.6 155.43-36.68 156.33-36.75 157.93-36.75L157.93-36.75 157.93-1Q156.73-0.4 154.9 0.05 153.08 0.5 150.78 0.5ZM150.93-3.15L150.93-3.15Q151.78-3.15 152.53-3.33 153.28-3.5 153.88-3.9L153.88-3.9 153.88-21.3Q153.43-21.7 152.9-21.83 152.38-21.95 151.58-21.95L151.58-21.95Q150.78-21.95 149.98-21.55 149.18-21.15 148.53-20.08 147.88-19 147.53-17.07 147.18-15.15 147.18-12.05L147.18-12.05Q147.18-9.2 147.43-7.45 147.68-5.7 148.18-4.78 148.68-3.85 149.35-3.5 150.03-3.15 150.93-3.15Z" opacity="1" transform="matrix(1,0,0,1,0,0)" fill="black" class="wordmark-text-0" id="SvgjsPath1199"></path></svg></g></svg></g></svg></g></svg></g><g transform="matrix(1,0,0,1,0,4.734101402253593)"><svg viewBox="0 0 120.53294285030357 110.89030742227929" height="110.89030742227929" width="120.53294285030357"><g><svg xmlns="http://www.w3.org/2000/svg" xmlns:xlink="http://www.w3.org/1999/xlink" version="1.1" x="0" y="0" viewBox="1 3 99.99999999999999 92" enable-background="new 0 0 102 98" xml:space="preserve" height="110.89030742227929" width="120.53294285030357" class="icon-icon-0" data-fill-palette-color="accent" id="SvgjsSvg1198"><g fill="black"><path d="M93.867 18H82.374c-4.063-7-7.926-15-16.879-15H52.006c-8.955 0-12.817 8-16.878 15H22.263c-0.986-1-1.912-1-4.083-1h-2.355c-2.172 0-3.097 0-4.083 1H8.133C4.345 18 1 20.641 1 24.429v63.443C1 91.66 4.345 95 8.133 95h85.734c3.788 0 7.133-3.34 7.133-7.128V24.429C101 20.641 97.655 18 93.867 18zM59.002 77.292c-15.783 0-28.578-12.793-28.578-28.577S43.22 20.139 59.002 20.139c15.782 0 28.579 12.793 28.579 28.577S74.784 77.292 59.002 77.292z" fill="black"></path><circle cx="58.944" cy="48.717" r="26" fill="black"></circle></g></svg></g></svg></g></svg></g><defs><mask></mask></defs></svg><rect width="395.52" height="89.46781241914235" fill="black" stroke="none" visibility="hidden"></rect></g></mask></svg><rect width="395.52" height="89.46781241914235" fill="black" stroke="none" visibility="hidden"></rect></g></mask><linearGradient x1="0" x2="1" y1="0.5" y2="0.5" id="7dacb42b-c37a-4204-b521-b77552dfa144"><stop stop-color="#ffa62e" offset="0"></stop><stop stop-color="#f71b3d" offset="1"></stop></linearGradient></svg><rect width="395.52" height="89.46781241914235" fill="none" stroke="none" visibility="hidden"></rect></g></svg></g></svg>